<?xml version="1.0" ?><!DOCTYPE svg  PUBLIC '-//W3C//DTD SVG 1.1//EN'  'http://www.w3.org/Graphics/SVG/1.1/DTD/svg11.dtd'><svg height="2048px" style="shape-rendering:geometricPrecision; text-rendering:geometricPrecision; image-rendering:optimizeQuality; fill-rule:evenodd; clip-rule:evenodd" viewBox="0 0 2048 2048" width="2048px" xml:space="preserve" xmlns="http://www.w3.org/2000/svg" xmlns:xlink="http://www.w3.org/1999/xlink"><defs><style type="text/css">
   <![CDATA[
    .fil2 {fill:none}
    .fil1 {fill:#00447E}
    .fil0 {fill:#0077C3}
   ]]>
  </style></defs><g id="Layer_x0020_1"><g id="_251946472"><path class="fil0" d="M1771.93 754.665c0,-101.339 -34.2118,-179.629 -86.5654,-236.381l-0.549213 -0.589371c6.09449,29.8394 9.04725,60.6603 9.04725,92.0658 0,41.5937 -5.06811,83.1154 -13.7528,123.762 -30.5315,142.899 -102.367,271.149 -216.709,363.526 -114.319,92.3587 -256.44,136.876 -402.678,136.876l-258.59 0 -100.476 471.134 -270.624 0 -18.9425 86.9434 217.436 0 101.939 0 59.3174 0 97.8627 -458.878 2.61378 -12.2563 12.4807 0 293.013 0c139.207,0 266.669,-43.5461 366.253,-124 96.0875,-77.6292 166.402,-189.8 196.452,-330.549 8.52284,-39.8634 12.4725,-77.0646 12.4725,-111.652z" id="_251946568"/><path class="fil1" d="M1268.25 728.594l0 0zm-456.998 187.147l87.9107 -388.974 2.72953 -12.0756 12.3036 0 200.966 0c16.226,0 31.7185,2.08583 46.2449,6.02363 34.2189,9.27757 62.8075,28.8107 82.8804,55.6122 20.002,26.7047 31.4398,60.4311 31.4398,98.1851 0,17.2488 -2.39646,35.3764 -7.47638,54.0815 -13.4244,57.1831 -47.6575,108.529 -92.3044,145.571 -45.0744,37.3961 -100.963,60.4134 -157.049,60.4134l-192.611 0 -19.291 0 4.2567 -18.8374zm824.65 -305.983c0,-101.337 -34.2118,-179.628 -86.5654,-236.38 -52.526,-56.9398 -123.443,-92.5253 -196.531,-108.154 -28.9004,-6.17953 -58.2,-9.2256 -86.889,-9.2256l-686.783 0 -303.071 1391.1 217.435 0 101.94 0 59.3174 0 97.8627 -458.878 2.61378 -12.2563 12.4795 0 293.014 0c139.206,0 266.669,-43.5473 366.253,-124 96.0875,-77.6292 166.402,-189.8 196.452,-330.549 8.52284,-39.8634 12.4725,-77.0646 12.4725,-111.653z" id="_251946328"/></g></g><rect class="fil2" height="2048" width="2048"/></svg>